<svg width="1024" height="1284" viewBox="0 0 1024 1284" fill="none" xmlns="http://www.w3.org/2000/svg">
<g clip-path="url(#clip0)">
<g filter="url(#filter0_f)">
<rect x="0.5" y="0.5" width="1023" height="861" stroke="black"/>
</g>
<path d="M1008.03 -17.7917H10.6362C-4.66375 -17.7917 -17.0668 -6.76154 -17.0668 6.84492V860.67C-17.0668 874.277 -4.66375 885.307 10.6362 885.307H1008.03C1023.33 885.307 1035.73 874.277 1035.73 860.67V6.84492C1035.73 -6.76154 1023.33 -17.7917 1008.03 -17.7917Z" fill="url(#paint0_linear)"/>
<g filter="url(#filter1_f)">
<g filter="url(#filter2_f)">
<path d="M-45.7465 480.846C-30.6616 467.259 16.1018 399.324 20.6273 344.977C25.1527 290.629 31.1867 286.1 31.1867 286.1L53.8141 266.474L59.8481 242.32C59.8481 242.32 68.8991 249.868 74.9331 234.771C80.967 219.675 67.3906 172.875 76.4415 172.875C85.4925 172.875 102.086 195.52 102.086 224.204C102.086 252.887 136.781 428.008 136.781 428.008C136.781 428.008 197.121 535.194 198.63 523.117C200.138 511.039 166.951 458.201 166.951 458.201L209.189 393.286L240.867 443.105C240.867 443.105 402.276 618.225 391.717 609.167C381.157 600.109 384.174 536.704 376.632 503.491C369.09 470.279 372.106 440.085 372.106 440.085L438.48 613.697L500.329 551.8L503.345 465.75C503.345 465.75 544.075 527.646 538.041 523.117C532.007 518.588 527.481 418.95 542.566 388.757C557.651 358.564 559.16 358.564 559.16 358.564C559.16 358.564 583.296 541.233 587.821 536.704C592.347 532.175 631.568 512.549 636.093 485.375C640.618 458.201 643.635 391.776 643.635 391.776C643.635 391.776 657.212 352.525 663.246 409.892C669.28 467.259 694.924 521.607 694.924 521.607L732.637 435.556L765.824 428.008C765.824 428.008 805.044 337.428 821.638 298.177C838.231 258.926 850.299 224.204 850.299 224.204C850.299 224.204 897.062 166.836 924.215 162.307C951.368 157.778 963.436 113.998 984.555 97.392C1005.67 80.7857 1047.91 77.7664 1047.91 77.7664L1022.27 897.513C1022.27 897.513 -30.6615 900.532 -35.187 891.474C-39.7125 882.416 -45.7465 480.846 -45.7465 480.846Z" fill="#23322B"/>
</g>
</g>
<g filter="url(#filter3_f)">
<g filter="url(#filter4_f)">
<path d="M772.267 859.687C787.2 854.35 855.467 757.208 855.467 757.208L886.4 750.803L1009.07 873.564C1009.07 873.564 950.4 884.239 950.4 879.969C950.4 875.699 914.133 828.73 914.133 828.73C914.133 828.73 921.6 854.349 919.467 862.889C917.333 871.429 885.333 869.294 885.333 869.294C885.333 869.294 900.267 844.742 890.667 824.46C881.067 804.177 874.667 811.65 874.667 811.65L861.867 860.754C861.867 860.754 853.333 891.712 851.2 863.957C849.067 836.202 848 830.865 848 830.865L825.6 869.294C825.6 869.294 762.667 871.429 766.933 869.294C771.2 867.159 772.267 859.687 772.267 859.687Z" fill="url(#paint1_linear)"/>
</g>
<g filter="url(#filter5_f)">
<path d="M619.733 754.005C619.733 744.398 614.4 691.023 619.733 632.311C625.067 573.599 637.867 517.022 637.867 517.022C637.867 517.022 642.133 584.274 641.067 637.649C640 691.023 636.8 752.938 636.8 752.938L619.733 754.005Z" fill="url(#paint2_linear)"/>
</g>
<g filter="url(#filter6_f)">
<path d="M634.584 381.964C637.601 363.848 638.356 320.067 651.178 290.629C664 261.191 680.594 229.488 680.594 229.488C680.594 229.488 664 212.127 665.509 166.837C667.017 121.547 682.102 53.6119 688.136 54.3668C694.17 55.1216 705.484 43.0443 703.975 77.7666C702.467 112.489 692.662 132.114 693.416 174.385C694.17 216.655 694.17 228.733 694.17 228.733C694.17 228.733 691.153 269.494 684.365 304.971C677.577 340.448 673.051 378.944 673.051 378.944C673.051 378.944 672.297 400.834 663.246 399.325C654.195 397.815 634.584 381.964 634.584 381.964Z" fill="url(#paint3_linear)"/>
</g>
<g filter="url(#filter7_f)">
<path d="M538.795 346.486C538.041 334.409 538.041 266.474 525.219 228.733C512.396 190.991 507.117 163.062 510.134 137.398C513.151 111.734 517.676 70.2181 521.447 58.8957C525.219 47.5732 530.498 43.7991 535.778 46.0636C541.058 48.3281 546.338 65.6892 544.829 84.56C543.321 103.431 545.583 153.25 546.338 156.269C547.092 159.288 553.126 168.346 554.634 226.468C556.143 284.59 552.372 314.029 552.372 314.029L536.532 350.261L538.795 346.486Z" fill="url(#paint4_linear)"/>
</g>
<g filter="url(#filter8_f)">
<path d="M409.6 377.18C409.6 371.843 416 276.836 423.467 253.351C430.933 229.866 457.6 144.467 466.133 142.332C474.667 140.197 474.667 140.197 474.667 140.197C474.667 140.197 467.2 127.387 467.2 162.614C467.2 197.842 462.933 284.308 453.333 313.131C443.733 341.953 421.333 403.868 421.333 403.868L409.6 377.18Z" fill="url(#paint5_linear)"/>
</g>
<g filter="url(#filter9_f)">
<path d="M385.067 333.413C385.067 333.413 387.2 306.726 359.467 249.081C331.733 191.437 297.6 158.345 288 122.05C278.4 85.7551 279.467 82.5527 284.8 81.4852C290.133 80.4177 298.667 85.7551 304 106.037C309.333 126.32 314.667 142.332 338.133 164.75C361.6 187.167 378.667 192.504 397.867 248.014C417.067 303.524 420.267 352.628 420.267 352.628L414.933 385.72L385.067 333.413Z" fill="url(#paint6_linear)"/>
</g>
<g filter="url(#filter10_f)">
<path d="M520.533 574.667L530.133 461.512L521.6 380.383L534.4 359.033C534.4 359.033 532.267 389.991 533.333 426.285C534.4 462.58 532.267 513.82 531.2 531.967C530.133 550.114 537.6 602.421 537.6 602.421L520.533 574.667Z" fill="url(#paint7_linear)"/>
</g>
<g filter="url(#filter11_f)">
<path d="M510.134 829.578C516.922 834.107 568.965 863.546 568.965 863.546L515.413 868.074L510.134 829.578Z" fill="#243F2D"/>
</g>
<g filter="url(#filter12_f)">
<path d="M408.31 792.591C408.31 792.591 427.921 819.01 439.989 829.578C452.057 840.146 469.404 865.055 469.404 865.055C469.404 865.055 434.709 877.887 430.938 870.339C427.166 862.791 408.31 792.591 408.31 792.591Z" fill="url(#paint8_linear)"/>
</g>
<g filter="url(#filter13_f)">
<path d="M393.225 726.166L464.879 800.895C464.879 800.895 484.489 810.707 466.387 794.856C448.285 779.005 439.234 765.418 427.167 751.076C415.099 736.734 381.912 694.464 381.912 694.464L393.225 726.166Z" fill="url(#paint9_linear)"/>
</g>
<g filter="url(#filter14_f)">
<path d="M283.733 868.227C298.667 845.81 321.067 796.705 336 770.018C350.933 743.33 375.467 708.103 375.467 708.103L360.533 696.361C360.533 696.361 345.6 719.846 325.333 756.14C305.067 792.435 278.4 869.294 278.4 869.294L283.733 868.227Z" fill="#66C025"/>
<path d="M283.733 868.227C298.667 845.81 321.067 796.705 336 770.018C350.933 743.33 375.467 708.103 375.467 708.103L360.533 696.361C360.533 696.361 345.6 719.846 325.333 756.14C305.067 792.435 278.4 869.294 278.4 869.294L283.733 868.227Z" stroke="black" stroke-width="0.264583"/>
</g>
<g filter="url(#filter15_f)">
<path d="M334.394 843.92C338.165 836.372 358.53 796.366 366.827 784.288C375.123 772.211 378.895 760.889 381.912 766.172C384.929 771.456 379.649 764.663 375.123 775.985C370.598 787.308 371.352 793.346 366.072 797.121C360.793 800.895 337.411 846.184 337.411 846.184L334.394 843.92Z" fill="#3E6B2C"/>
</g>
<g filter="url(#filter16_f)">
<path d="M150.4 525.562C150.4 519.157 118.4 490.335 92.7999 467.917C67.1999 445.5 18.1332 414.543 12.7999 398.53C7.46654 382.518 1.06654 359.033 20.2665 366.505C39.4665 373.978 74.6665 414.543 94.9332 433.757C115.2 452.972 156.8 496.739 156.8 496.739L150.4 525.562Z" fill="url(#paint10_linear)"/>
</g>
<g filter="url(#filter17_f)">
<path d="M14.5933 543.497C21.3816 539.723 50.7972 526.891 50.7972 526.891L50.0429 510.285L36.4665 514.059C36.4665 514.059 21.3816 484.62 22.1358 448.389C22.89 412.157 18.3646 336.674 18.3646 336.674C18.3646 336.674 24.3985 415.176 31.941 414.421C39.4835 413.666 50.0429 421.215 50.0429 415.176C50.0429 409.137 31.941 334.409 31.941 302.706C31.941 271.003 47.7802 210.617 47.026 178.914C46.2717 147.211 48.5345 132.114 38.7292 132.114C28.924 132.114 23.6443 128.34 23.6443 153.25C23.6443 178.159 13.8391 199.294 10.0678 225.713C6.29661 252.132 7.8051 272.513 7.8051 272.513C7.8051 272.513 1.77113 194.765 7.8051 172.875C13.8391 150.985 7.05085 122.302 7.05085 122.302L12.3306 102.676H4.03387L-14.8223 158.533L-10.2968 452.163C-10.2968 452.163 5.54236 490.659 9.31359 512.549C13.0848 534.439 14.5933 543.497 14.5933 543.497Z" fill="url(#paint11_linear)"/>
</g>
<g filter="url(#filter18_f)">
<path d="M-14.9334 511.685C-14.9334 511.685 19.1999 596.016 40.5333 692.091C61.8666 788.165 69.3333 881.037 69.3333 881.037L-11.7334 872.497L-14.9334 511.685Z" fill="url(#paint12_linear)"/>
</g>
<g filter="url(#filter19_f)">
<path d="M226.133 568.262C226.133 555.452 260.267 463.647 260.267 463.647C260.267 463.647 270.933 431.623 280.533 434.825C290.133 438.028 281.6 468.985 281.6 468.985C281.6 468.985 269.867 483.93 264.533 518.09C259.2 552.249 240 583.207 240 583.207L228.267 572.532L226.133 568.262Z" fill="#84C245"/>
</g>
<g filter="url(#filter20_f)">
<path d="M12.3305 190.991C16.1018 120.037 33.4495 120.792 19.1188 65.6891C4.78806 10.5864 10.822 -9.03916 25.1527 -9.79399C39.4834 -10.5488 47.7802 30.9669 62.8651 88.3341C77.95 145.701 42.5004 186.462 83.984 138.153C125.468 89.8437 106.611 113.243 114.908 52.857C123.205 -7.5295 136.027 -11.3037 145.832 -4.51017C155.638 2.28331 177.511 0.0188189 148.095 75.5019C118.679 150.985 129.239 56.6312 118.679 150.23C108.12 243.829 167.705 280.816 106.611 244.584C106.611 244.584 60.6024 186.462 57.5854 214.391C54.5684 242.32 21.3815 262.7 27.4155 285.345C33.4495 307.99 12.3305 190.991 12.3305 190.991Z" fill="url(#paint13_linear)"/>
</g>
<g filter="url(#filter21_f)">
<path d="M446.777 113.998C423.395 180.423 405.293 184.952 424.15 210.617C443.006 236.281 448.285 242.32 467.142 213.636C485.998 184.952 523.71 176.649 511.642 119.282C499.574 61.915 501.837 55.1215 485.998 55.1215C470.159 55.1215 446.023 117.018 446.023 117.018L446.777 113.998Z" fill="#419148"/>
</g>
<g filter="url(#filter22_f)">
<path d="M394.734 24.9282C337.411 55.1215 304.979 11.3413 318.555 78.5212C332.131 145.701 315.538 210.617 359.284 168.346C403.031 126.076 383.42 113.998 406.802 71.7278C430.184 29.4572 421.133 31.7217 407.556 27.1928C393.98 22.6638 394.734 24.9282 394.734 24.9282Z" fill="#479B3D"/>
</g>
<g filter="url(#filter23_f)">
<path d="M266.512 81.5405C212.206 95.1275 213.715 94.3726 228.8 117.018C243.884 139.663 226.537 133.624 280.088 168.346C333.64 203.068 337.411 218.165 337.411 218.165C337.411 218.165 320.818 155.514 304.224 138.153C287.631 120.792 269.529 126.076 274.809 93.6178C280.088 61.1601 280.088 45.3086 272.546 41.5344C265.003 37.7603 266.512 81.5405 266.512 81.5405Z" fill="#52A248"/>
</g>
<g filter="url(#filter24_f)">
<path d="M906.114 -2.24556C916.673 58.1409 893.291 96.6373 921.953 59.6506C950.614 22.6639 958.157 28.7025 947.597 7.56726C937.038 -13.568 906.114 -2.24556 906.114 -2.24556Z" fill="#3A7D3A"/>
</g>
<g filter="url(#filter25_f)">
<path d="M798.256 -8.28446C803.536 40.7796 809.57 66.4438 815.604 55.8762C821.638 45.3085 836.723 29.4571 838.231 9.83149C839.74 -9.79413 798.256 -8.28446 798.256 -8.28446Z" fill="#539C65"/>
</g>
<g filter="url(#filter26_f)">
<path d="M768.086 49.8377C784.68 98.1469 793.731 124.566 797.502 95.1276C801.273 65.6892 802.782 53.6119 790.714 49.0829C778.646 44.5539 768.086 49.8377 768.086 49.8377Z" fill="#74AC7B"/>
</g>
<g filter="url(#filter27_f)">
<path d="M599.135 297.422C628.551 242.32 638.356 219.675 659.475 209.107C680.594 198.539 684.365 200.804 677.577 190.991C670.788 181.178 664 181.933 634.584 200.804C605.169 219.675 587.821 260.436 587.821 260.436L599.135 297.422Z" fill="#83B558"/>
</g>
<g filter="url(#filter28_f)">
<path d="M625.533 70.218C625.533 70.218 584.05 177.404 587.821 231.752C591.592 286.1 591.592 350.26 608.94 368.376C626.288 386.492 642.127 350.26 636.093 267.984C630.059 185.707 657.966 126.075 652.686 99.6564C647.407 73.2373 625.533 70.218 625.533 70.218Z" fill="url(#paint14_linear)"/>
</g>
<g filter="url(#filter29_f)">
<path d="M661.737 415.931C687.382 303.461 699.45 298.177 699.45 240.055C699.45 181.933 681.348 184.198 693.416 138.153C705.484 92.1081 697.941 89.0888 694.17 92.1081C690.399 95.1274 680.594 98.9016 672.297 132.114C664 165.327 663.246 195.52 660.229 245.339C657.212 295.158 657.212 307.235 639.864 349.505C622.517 391.776 599.135 381.963 624.779 428.008C650.424 474.053 651.932 474.807 651.932 474.807L661.737 415.931Z" fill="url(#paint15_linear)"/>
</g>
<g filter="url(#filter30_f)">
<path d="M694.924 546.516C697.187 525.381 696.433 474.053 705.484 452.163C714.535 430.272 730.374 415.931 730.374 390.266C730.374 364.602 728.111 338.183 732.637 312.519C737.162 286.855 751.493 261.19 749.23 247.603C746.967 234.016 746.967 215.9 746.967 215.9L754.51 222.694C754.51 222.694 762.807 238.545 761.298 258.171C759.79 277.797 750.739 315.538 752.247 344.976C753.756 374.415 771.858 372.905 753.001 413.666C734.145 454.427 716.798 462.73 716.798 477.827C716.798 492.923 706.992 521.607 706.992 521.607L694.924 546.516Z" fill="url(#paint16_linear)"/>
</g>
<g filter="url(#filter31_f)">
<path d="M675.314 612.187C723.586 573.69 723.586 564.632 740.179 550.291C756.773 535.949 770.349 514.814 764.315 509.53C758.281 504.246 777.137 488.394 749.984 513.304C722.831 538.213 721.323 510.285 700.958 548.781C680.594 587.277 675.314 612.187 675.314 612.187Z" fill="#5B8F47"/>
</g>
<g filter="url(#filter32_f)">
<path d="M799.01 185.707C762.052 68.7086 759.035 53.6119 740.933 33.9863C722.831 14.3607 700.958 -34.7033 719.06 22.6638C737.162 80.031 764.315 113.244 771.103 187.217C777.892 261.191 798.256 190.236 798.256 190.236L799.01 185.707Z" fill="#77B051"/>
</g>
<g filter="url(#filter33_f)">
<path d="M889.52 429.518C889.52 429.518 873.681 382.718 867.647 337.428C861.613 292.139 849.545 227.978 847.282 200.804C845.019 173.63 849.545 131.36 849.545 131.36C849.545 131.36 859.35 128.34 859.35 133.624C859.35 138.908 851.054 173.63 857.088 187.972C863.121 202.314 888.012 263.455 891.029 290.629C894.046 317.803 900.834 415.176 900.834 415.176L889.52 429.518Z" fill="url(#paint17_linear)"/>
</g>
<g filter="url(#filter34_f)">
<path d="M1033.58 87.5791C1029.81 86.8243 949.86 224.958 949.86 224.958C949.86 224.958 973.996 281.571 977.767 279.306C981.538 277.042 1053.19 171.365 1053.19 171.365L1027.55 134.379L994.361 190.991L1027.55 121.547L1033.58 87.5791Z" fill="#54956A"/>
</g>
<g filter="url(#filter35_f)">
<path d="M959.665 160.043C992.852 75.502 990.589 7.56718 992.852 76.2568C995.115 144.946 1009.45 138.908 994.361 162.308C979.276 185.707 959.665 160.043 959.665 160.043Z" fill="#376733"/>
</g>
<g filter="url(#filter36_f)">
<path d="M1001.9 504.246C1001.15 490.659 1011.71 449.143 1013.22 420.46C1014.73 391.776 992.098 332.899 995.115 329.88C998.132 326.861 1001.9 272.513 1001.9 272.513L1010.95 247.603C1010.95 247.603 1031.32 253.642 1031.32 271.758C1031.32 289.874 1041.88 368.376 1041.88 368.376C1041.88 368.376 1026.79 423.479 1023.02 450.653C1019.25 477.827 1023.02 505.756 1023.02 505.756L1001.9 504.246Z" fill="url(#paint18_linear)"/>
</g>
<g filter="url(#filter37_f)">
<path d="M654.949 524.626C654.949 524.626 661.737 466.504 645.898 420.46C630.059 374.415 580.279 300.442 593.101 243.074C605.923 185.707 631.568 147.966 633.076 135.889C634.584 123.811 630.059 114.753 630.059 114.753C630.059 114.753 621.762 107.96 601.398 147.966C581.033 187.972 567.457 214.391 567.457 244.584C567.457 274.777 583.296 301.951 595.364 366.867C607.432 431.782 606.677 474.053 624.779 495.943C642.881 517.833 660.229 530.665 660.229 530.665L654.949 524.626Z" fill="#3D9A6F"/>
</g>
</g>
<g filter="url(#filter38_f)">
<g filter="url(#filter39_f)">
<path d="M183.545 869.584C183.545 869.584 194.104 777.495 194.104 751.83C194.104 726.166 197.875 705.031 194.104 715.599C190.333 726.166 199.384 726.166 178.265 788.062C157.146 849.959 140.553 861.281 139.798 857.507C139.044 853.733 129.993 823.539 131.502 797.12C133.01 770.701 129.993 696.728 132.256 684.651C134.519 672.573 145.078 658.231 151.866 634.832C158.654 611.432 160.163 563.123 160.163 563.123L226.537 688.425L250.673 773.721C250.673 773.721 235.588 776.74 235.588 791.082C235.588 805.423 234.833 850.713 226.537 862.036C218.24 873.358 212.96 871.094 212.96 871.094L183.545 869.584Z" fill="url(#paint19_linear)"/>
</g>
<g filter="url(#filter40_f)">
<path d="M766.933 636.581C766.933 629.109 781.867 483.93 796.8 442.298C811.733 400.665 846.933 296.051 846.933 296.051C846.933 296.051 862.933 262.959 870.4 237.339C877.867 211.719 877.867 196.774 877.867 196.774L883.2 203.179C883.2 203.179 878.933 261.891 870.4 298.186C861.867 334.481 855.467 394.26 842.667 436.96C829.867 479.66 792.533 531.967 792.533 531.967C792.533 531.967 785.067 558.654 786.133 596.016C787.2 633.379 791.467 715.576 782.933 775.355C774.4 835.135 770.133 837.27 770.133 837.27C770.133 837.27 766.933 737.993 770.133 691.023C773.333 644.054 766.933 636.581 766.933 636.581Z" fill="url(#paint20_linear)"/>
</g>
<g filter="url(#filter41_f)">
<path d="M732.8 862.889C732.8 862.889 737.067 795.637 730.667 720.913C724.267 646.189 707.2 537.304 707.2 537.304C707.2 537.304 696.533 572.532 701.867 675.011C707.2 777.49 716.8 865.024 716.8 865.024L732.8 862.889Z" fill="url(#paint21_linear)"/>
</g>
<g filter="url(#filter42_f)">
<path d="M701.713 862.791C703.221 856.752 706.238 818.256 692.662 738.244C679.085 658.232 656.458 622 644.39 575.955C632.322 529.91 605.923 371.396 605.923 371.396C605.923 371.396 561.423 263.455 568.965 270.248C576.507 277.042 584.05 278.552 591.592 300.442C599.135 322.332 608.186 369.886 608.186 369.886C608.186 369.886 621.762 403.099 630.059 423.479C638.356 443.86 646.652 468.769 646.652 468.769C646.652 468.769 699.45 649.929 703.975 684.651C708.501 719.373 723.586 862.791 723.586 862.791H701.713Z" fill="url(#paint22_linear)"/>
</g>
<g filter="url(#filter43_f)">
<path d="M577.067 551.182C577.067 551.182 569.6 565.059 562.133 550.114C554.667 535.169 546.133 515.954 546.133 515.954C546.133 515.954 549.333 428.42 558.933 367.573C568.533 306.726 580.267 258.689 582.4 233.069C584.533 207.449 580.267 178.627 580.267 178.627C580.267 178.627 581.333 147.67 592 150.872C602.667 154.075 596.267 182.897 596.267 182.897C596.267 182.897 605.867 202.112 602.667 221.327C599.467 240.541 586.667 329.143 586.667 383.585C586.667 438.027 577.067 472.187 577.067 472.187L616.533 414.543L624 430.555C624 430.555 603.733 478.592 594.133 491.402C584.533 504.212 581.333 539.439 581.333 539.439L577.067 551.182Z" fill="url(#paint23_linear)"/>
</g>
<g filter="url(#filter44_f)">
<path d="M449.067 274.701C449.067 269.364 468.267 187.167 486.4 153.007C504.533 118.847 518.4 84.6877 518.4 84.6877C518.4 84.6877 528 97.4976 517.333 138.062C506.667 178.627 494.933 232.002 494.933 232.002L441.6 428.42L416 394.26L449.067 274.701Z" fill="url(#paint24_linear)"/>
</g>
<g filter="url(#filter45_f)">
<path d="M467.896 662.761C467.896 662.761 464.125 596.335 466.387 566.897C468.65 537.459 484.489 508.02 484.489 508.02C484.489 508.02 495.049 435.556 510.888 394.796C526.727 354.035 559.914 275.532 574.999 262.7C590.084 249.868 531.253 370.641 531.253 370.641C531.253 370.641 491.278 489.904 489.015 508.02C486.752 526.136 491.278 600.865 491.278 600.865C491.278 600.865 485.998 643.89 487.506 672.573C489.015 701.257 492.032 729.941 492.032 729.941L467.896 662.761Z" fill="url(#paint25_linear)"/>
</g>
<g filter="url(#filter46_f)">
<path d="M388.267 606.691C386.133 598.151 293.333 406.003 273.067 345.156C252.8 284.309 205.867 162.615 205.867 162.615C205.867 162.615 188.8 140.197 167.467 103.902C146.133 67.6077 136.533 44.1228 136.533 44.1228L140.8 40.9204C140.8 40.9204 187.733 81.4851 203.733 122.05C219.733 162.615 256 234.136 256 234.136C256 234.136 320 308.861 342.4 341.953C364.8 375.045 417.067 482.862 417.067 482.862L441.6 559.722L444.8 696.361L388.267 606.691Z" fill="url(#paint26_linear)"/>
</g>
<g filter="url(#filter47_f)">
<path d="M469.333 796.705C470.4 792.435 356.267 594.949 356.267 594.949L315.733 479.66C315.733 479.66 331.733 491.402 361.6 536.237C391.467 581.071 455.467 732.655 455.467 732.655L469.333 796.705Z" fill="url(#paint27_linear)"/>
</g>
<g filter="url(#filter48_f)">
<path d="M65.0666 861.822C65.0666 847.945 70.4 756.14 65.0666 694.226C59.7333 632.311 40.5333 566.127 38.3999 529.832C36.2666 493.537 36.2666 491.402 36.2666 491.402L29.8666 490.335C29.8666 490.335 25.5999 509.549 29.8666 554.384C34.1333 599.219 34.1333 599.219 34.1333 599.219C34.1333 599.219 17.0666 649.391 19.1999 734.79C21.3333 820.19 22.3999 866.092 22.3999 866.092L65.0666 861.822Z" fill="url(#paint28_linear)"/>
</g>
<g filter="url(#filter49_f)">
<path d="M88.5333 871.43C88.5333 867.16 106.667 810.582 98.1333 736.926C89.6 663.269 70.4 617.366 74.6667 569.329C78.9333 521.292 78.9333 501.01 82.1333 466.85C85.3333 432.69 83.2 403.868 83.2 403.868C83.2 403.868 65.0667 448.703 64 479.66C62.9333 510.617 40.5333 572.532 40.5333 654.729C40.5333 736.926 53.3333 873.564 53.3333 873.564L88.5333 871.43Z" fill="url(#paint29_linear)"/>
</g>
<g filter="url(#filter50_f)">
<path d="M118.4 866.092C118.4 866.092 116.267 820.19 125.867 772.153C135.467 724.115 144 650.458 144 650.458C144 650.458 135.467 614.164 139.733 592.814C144 571.464 152.533 545.844 152.533 545.844L157.867 551.182C157.867 551.182 148.267 568.262 150.4 605.624C152.533 642.986 152.533 658.998 152.533 658.998C152.533 658.998 144 758.275 149.333 800.975C154.667 843.675 158.933 865.024 158.933 865.024L118.4 866.092Z" fill="url(#paint30_linear)"/>
</g>
<g filter="url(#filter51_f)">
<path d="M172.8 868.227C173.867 860.754 182.4 852.215 185.6 828.73C188.8 805.245 189.867 790.3 189.867 790.3C189.867 790.3 172.8 814.852 168.533 834.067C164.267 853.282 160 869.294 160 869.294L172.8 868.227Z" fill="#2C751E"/>
</g>
<g filter="url(#filter52_f)">
<path d="M190.933 867.693C190.933 861.822 190.933 851.147 194.133 819.122C197.333 787.098 202.133 771.619 205.333 760.944C208.533 750.269 212.267 748.134 213.333 760.41C214.4 772.686 211.733 821.257 206.933 844.208C202.133 867.159 199.467 871.429 199.467 871.429L190.933 867.693Z" fill="#92B735"/>
</g>
<g filter="url(#filter53_f)">
<path d="M56.0769 241.565C56.0769 241.565 152.621 307.235 172.231 343.467C191.841 379.699 225.783 460.466 225.783 460.466C225.783 460.466 282.351 527.646 292.156 564.633C301.962 601.619 311.012 626.529 311.012 626.529C311.012 626.529 324.589 643.135 324.589 629.548C324.589 615.961 286.877 423.479 273.3 412.911C259.724 402.344 215.223 336.674 189.579 311.009C163.934 285.345 102.84 232.507 102.84 232.507L38.7292 189.481L56.0769 241.565Z" fill="url(#paint31_linear)"/>
</g>
<g filter="url(#filter54_f)">
<path d="M710.764 309.5C719.815 247.603 727.357 283.08 719.814 239.3C712.272 195.52 698.696 176.649 705.484 150.985C712.272 125.321 720.569 107.205 722.831 124.566C725.094 141.927 710.764 144.946 727.357 193.256C743.95 241.565 755.264 248.358 745.459 302.706C735.654 357.054 722.831 369.131 711.518 420.46C700.204 471.788 718.306 496.698 696.433 489.149C674.56 481.601 658.721 485.375 670.034 443.86C681.348 402.344 710.764 309.5 710.764 309.5Z" fill="url(#paint32_linear)"/>
</g>
<g filter="url(#filter55_f)">
<path d="M749.23 453.672C761.298 515.568 759.035 585.768 765.824 580.484C772.612 575.2 771.103 546.516 771.103 539.723C771.103 532.93 772.612 400.834 772.612 400.834L749.23 453.672Z" fill="url(#paint33_linear)"/>
</g>
<g filter="url(#filter56_f)">
<path d="M794.485 347.996C794.485 341.203 793.731 267.984 802.027 226.468C810.324 184.952 824.655 126.076 824.655 126.076L809.57 122.301C809.57 122.301 804.29 135.134 786.188 204.578C768.086 274.022 764.315 400.834 764.315 400.834L794.485 347.996Z" fill="#49A12A"/>
</g>
<g filter="url(#filter57_f)">
<path d="M941.563 519.342C940.055 510.284 912.902 366.112 904.605 332.144C896.308 298.177 885.749 236.281 887.257 216.655C888.766 197.03 890.274 150.985 897.817 132.114C905.359 113.243 912.902 97.3919 912.902 97.3919L917.427 101.921C917.427 101.921 906.114 129.095 909.131 159.288C912.148 189.481 903.097 244.584 921.953 290.629C940.809 336.673 958.157 384.228 958.157 422.724C958.157 461.221 958.911 517.078 958.911 517.078L941.563 519.342Z" fill="url(#paint34_linear)"/>
</g>
<g filter="url(#filter58_f)">
<path d="M964.191 637.096C964.191 631.057 935.529 495.943 936.284 457.446C937.038 418.95 943.072 365.357 943.826 312.519C944.58 259.681 929.495 160.043 929.495 160.043C929.495 160.043 973.996 212.126 979.276 258.926C984.555 305.725 975.504 429.518 975.504 429.518C975.504 429.518 969.47 535.949 971.733 580.484C973.996 625.019 974.75 647.664 974.75 647.664L964.191 637.096Z" fill="url(#paint35_linear)"/>
</g>
<g filter="url(#filter59_f)">
<path d="M896.308 112.489C896.308 112.489 974.75 154.759 982.293 244.584C989.835 334.409 975.504 438.576 974.75 505.001C973.996 571.426 985.31 658.231 985.31 658.231C985.31 658.231 1000.39 617.471 999.64 572.181C998.886 526.891 998.886 463.485 1002.66 428.008C1006.43 392.531 1003.41 329.88 1003.41 308.745C1003.41 287.609 1009.45 241.565 994.361 207.597C979.276 173.63 955.14 144.946 932.512 130.605C909.885 116.263 898.571 106.45 898.571 106.45L896.308 112.489Z" fill="url(#paint36_linear)"/>
</g>
</g>
<g filter="url(#filter60_f)">
<path d="M425.6 877.834C419.2 871.429 333.867 685.686 308.267 600.286C282.667 514.887 275.2 463.647 257.067 409.205C241.824 363.442 217.6 318.468 213.333 272.566C209.067 226.664 218.667 194.639 218.667 194.639L220.8 202.112C220.8 202.112 211.2 236.272 227.2 277.904C243.2 319.536 289.067 395.328 311.467 444.433C333.88 493.566 371.2 594.949 386.133 662.201C401.067 729.453 438.4 874.632 438.4 874.632L425.6 877.834Z" fill="url(#paint37_linear)"/>
</g>
<g filter="url(#filter61_f)">
<path d="M844.8 866.092C846.933 840.472 833.067 721.98 849.067 609.894C865.067 497.807 862.933 456.175 882.133 380.383C901.333 304.591 922.667 276.836 922.667 276.836L930.133 281.106C930.133 281.106 908.8 301.388 903.467 334.481C898.133 367.573 910.933 582.139 902.4 677.146C893.867 772.153 872.533 865.024 872.533 865.024L844.8 866.092Z" fill="url(#paint38_linear)"/>
</g>
<g filter="url(#filter62_f)">
<path d="M996.267 863.957C996.267 863.957 977.067 757.208 951.467 639.784C925.867 522.36 896 418.813 870.4 382.518C844.8 346.223 836.267 336.616 836.267 336.616L832 340.886C832 340.886 851.2 363.303 868.267 411.34C885.333 459.378 891.733 600.287 903.467 671.809C915.2 743.331 951.467 868.227 951.467 868.227L996.267 863.957Z" fill="url(#paint39_linear)"/>
</g>
<g filter="url(#filter63_f)">
<path d="M782.417 757.114C786.188 697.483 788.451 680.876 798.256 651.438C808.061 622 813.341 606.148 821.638 603.884C829.934 601.619 832.951 609.922 832.951 609.922C832.951 609.922 826.163 625.019 814.095 655.967C802.027 686.915 800.519 724.657 794.485 742.018C788.451 759.379 782.417 757.114 782.417 757.114Z" fill="url(#paint40_linear)"/>
</g>
<g filter="url(#filter64_f)">
<path d="M728.533 870.362C728.533 866.092 753.067 701.698 753.067 701.698C753.067 701.698 776.533 646.189 777.6 597.084C778.667 547.979 769.067 484.997 769.067 484.997L752 692.091C752 692.091 737.067 725.183 725.333 786.03C713.6 846.877 710.4 866.092 710.4 866.092L728.533 870.362Z" fill="url(#paint41_linear)"/>
</g>
<g filter="url(#filter65_f)">
<path d="M605.169 860.527C605.923 853.733 611.957 773.721 631.568 712.58C651.178 651.438 675.314 594.071 675.314 594.071V583.503L695.679 545.007L698.696 529.156L717.552 494.433C717.552 494.433 742.442 422.724 776.383 366.112C810.324 309.5 834.46 284.59 834.46 284.59C834.46 284.59 785.434 387.247 762.807 431.028C740.179 474.808 702.467 553.31 702.467 553.31L682.102 591.052C682.102 591.052 668.526 716.354 661.738 757.869C654.949 799.385 638.356 861.281 638.356 861.281L605.169 860.527Z" fill="url(#paint42_linear)"/>
</g>
<g filter="url(#filter66_f)">
<path d="M532.761 582.749C542.566 546.517 538.795 531.42 528.99 522.362C519.185 513.304 517.676 499.717 502.591 481.601C487.506 463.485 477.701 452.163 468.65 428.763C459.599 405.363 452.811 363.848 452.811 360.073C452.811 356.299 461.108 261.945 467.142 255.152C473.175 248.358 476.193 246.849 474.684 264.21C473.176 281.571 469.404 334.409 473.176 354.035C476.947 373.66 492.032 446.124 492.032 446.124C492.032 446.124 511.642 474.808 528.236 498.208C544.829 521.607 560.668 520.852 555.389 559.349C550.109 597.845 544.829 606.148 544.829 606.148L532.761 582.749Z" fill="url(#paint43_linear)"/>
</g>
<g filter="url(#filter67_f)">
<path d="M665.6 860.755C665.6 860.755 590.933 740.128 557.867 679.281C524.8 618.434 472.533 492.47 472.533 492.47C472.533 492.47 460.8 476.457 439.467 458.31C418.133 440.162 406.4 433.758 406.4 433.758L407.467 428.42C407.467 428.42 430.933 433.758 446.933 450.837C462.933 467.917 509.867 526.629 526.933 559.722C544 592.814 553.6 610.961 553.6 610.961C553.6 610.961 615.467 711.306 642.133 774.288C668.8 837.27 677.333 865.024 677.333 865.024L665.6 860.755Z" fill="url(#paint44_linear)"/>
</g>
<g filter="url(#filter68_f)">
<path d="M424.533 573.599C420.266 558.654 323.2 379.316 323.2 379.316L261.333 272.566C261.333 272.566 181.333 187.167 155.733 158.345C130.133 129.522 72.5332 56.9328 72.5332 56.9328H78.9332C78.9332 56.9328 135.467 110.307 163.2 131.657C190.933 153.007 222.933 208.517 222.933 208.517L244.267 246.946L265.6 269.364C265.6 269.364 370.133 409.205 393.6 452.972C417.067 496.74 429.867 546.912 429.867 546.912L424.533 573.599Z" fill="url(#paint45_linear)"/>
</g>
<g filter="url(#filter69_f)">
<path d="M517.333 853.282C519.467 837.27 521.6 827.662 521.6 784.963C521.6 742.263 510.933 656.863 503.467 619.501C496 582.139 496 582.139 496 582.139C496 582.139 488.533 632.311 487.467 671.808C486.4 711.306 497.067 814.852 497.067 814.852L517.333 853.282Z" fill="url(#paint46_linear)"/>
</g>
<g filter="url(#filter70_f)">
<path d="M65.8821 745.037C65.8821 745.037 92.2807 777.495 111.137 801.649C129.993 825.804 158.654 860.526 158.654 860.526L187.316 811.462C187.316 811.462 171.477 782.024 139.798 762.398C108.12 742.773 56.8311 694.464 56.8311 694.464L65.8821 745.037Z" fill="#1E312C"/>
</g>
<g filter="url(#filter71_f)">
<path d="M310.4 781.76C310.4 781.76 263.467 693.158 244.267 608.826C225.067 524.494 200.533 400.665 200.533 400.665C200.533 400.665 187.733 305.659 189.867 277.904C192 250.149 194.133 239.474 194.133 239.474C194.133 239.474 197.333 253.351 199.467 271.499C201.6 289.646 213.333 413.475 213.333 413.475C213.333 413.475 249.6 494.605 268.8 540.507C288 586.409 337.067 756.14 337.067 761.478C337.067 766.815 310.4 781.76 310.4 781.76Z" fill="url(#paint47_linear)"/>
</g>
<g filter="url(#filter72_f)">
<g filter="url(#filter73_f)">
<path d="M434.133 546.912C433.067 539.439 401.067 367.573 401.067 367.573V364.371C401.067 364.371 352 291.781 318.933 260.824C285.867 229.867 252.8 203.179 252.8 203.179L259.2 199.977C259.2 199.977 283.733 212.787 301.867 226.664C320 240.541 405.333 355.831 405.333 355.831L455.467 445.5C455.467 445.5 467.2 465.782 466.133 486.065C465.067 506.347 461.867 667.538 461.867 667.538C461.867 667.538 433.067 610.961 433.067 604.556C433.067 598.151 434.133 546.912 434.133 546.912Z" fill="url(#paint48_linear)"/>
</g>
<g filter="url(#filter74_f)">
<path d="M479.964 862.036C479.964 862.036 428.675 653.703 422.641 622C416.607 590.297 424.904 491.414 424.904 491.414C424.904 491.414 430.938 557.839 445.268 603.884C459.599 649.928 481.472 686.16 498.066 745.792C514.659 805.424 514.659 783.534 518.43 818.256C522.202 852.978 522.956 862.791 522.956 862.791L479.964 862.036Z" fill="url(#paint49_linear)"/>
</g>
<g filter="url(#filter75_f)">
<path d="M154.667 877.834C154.667 877.834 163.2 813.785 141.867 737.993C120.533 662.201 77.8666 562.924 77.8666 562.924C77.8666 562.924 63.9999 527.697 65.0666 512.752C66.1333 497.807 68.2666 479.66 68.2666 479.66H60.7999C60.7999 479.66 47.9999 522.36 58.6666 566.127C69.3333 609.894 84.2666 654.729 99.1999 702.766C114.133 750.803 125.867 768.95 122.667 816.987C119.467 865.025 119.467 877.834 119.467 877.834H154.667Z" fill="url(#paint50_linear)"/>
</g>
<g filter="url(#filter76_f)">
<path d="M252.8 875.699C250.667 859.687 244.267 778.558 209.067 710.238C173.867 641.919 149.333 561.857 124.8 501.01C100.267 440.163 70.3999 299.254 70.3999 299.254L78.9333 287.511C78.9333 287.511 102.4 389.99 123.733 425.218C145.067 460.445 179.2 527.697 196.267 567.194C213.333 606.691 229.333 669.673 242.133 693.158C254.933 716.643 265.6 741.195 273.067 764.68C280.533 788.165 282.667 875.699 282.667 875.699H252.8Z" fill="url(#paint51_linear)"/>
</g>
<g filter="url(#filter77_f)">
<path d="M43.7333 194.639C43.7333 194.639 44.8 233.069 61.8666 289.646C78.9333 346.223 146.133 498.875 178.133 554.384C210.133 609.894 290.133 760.41 290.133 760.41L340.267 869.294C340.267 869.294 353.067 871.429 353.067 865.024C353.067 858.619 313.6 719.846 290.133 666.471C266.667 613.096 231.467 541.574 206.933 513.82C182.4 486.065 104.533 351.561 104.533 351.561L77.8666 309.928C77.8666 309.928 59.7333 270.431 56.5333 251.216C53.3333 232.002 52.2666 195.707 52.2666 195.707L43.7333 194.639Z" fill="url(#paint52_linear)"/>
</g>
<g filter="url(#filter78_f)">
<path d="M1032.53 557.587C1026.13 549.047 986.667 505.28 967.467 468.985C948.267 432.69 905.6 339.818 905.6 339.818C905.6 339.818 897.067 329.143 902.4 323.806C907.733 318.469 929.067 354.763 929.067 359.033C929.067 363.303 954.667 407.07 973.867 430.555C993.067 454.04 1030.4 489.267 1030.4 489.267L1032.53 557.587Z" fill="url(#paint53_linear)"/>
</g>
<g filter="url(#filter79_f)">
<path d="M393.98 155.514C393.98 155.514 389.454 171.366 406.802 175.895C424.15 180.424 428.675 200.049 436.972 156.269C445.268 112.489 446.777 86.8245 461.108 46.8184C475.438 6.81235 471.667 -13.5681 468.65 -12.8133C465.633 -12.0584 440.743 -10.5488 438.48 -7.52944C436.218 -4.51011 423.395 15.1155 415.853 47.5732C408.31 80.031 393.98 155.514 393.98 155.514Z" fill="#8AB98F"/>
</g>
<g filter="url(#filter80_f)">
<path d="M406.802 169.101C406.802 169.101 396.242 166.082 400.014 152.495C403.785 138.908 408.31 98.9019 422.641 98.9019C436.972 98.9019 439.235 99.6567 438.48 111.734C437.726 123.811 439.235 149.476 430.938 157.024C422.641 164.572 420.378 169.101 415.853 169.856C411.327 170.611 406.802 169.101 406.802 169.101Z" fill="#7BAF92"/>
</g>
<g filter="url(#filter81_f)">
<path d="M396.242 85.3149C409.819 95.1277 416.607 98.9018 429.429 89.089C442.251 79.2762 439.989 77.7665 443.76 62.6699C447.531 47.5733 424.15 21.9091 416.607 24.1736C409.065 26.4381 400.768 58.8958 400.014 67.1989C399.259 75.5021 396.242 85.3149 396.242 85.3149Z" fill="#82B74B"/>
</g>
</g>
</g>
<rect width="788.821" height="457.7" transform="matrix(-0.894389 0.447291 0.447291 0.894389 491.788 517.609)" fill="#C4C4C4"/>
<rect y="255" width="1384.83" height="457.7" transform="rotate(26.57 0 255)" fill="#333333"/>
<rect x="-221.667" y="367.111" width="1300" height="457.7" transform="rotate(-26.57 -221.667 367.111)" fill="black"/>
<defs>
<filter id="filter0_f" x="-25" y="-25" width="1074" height="912" filterUnits="userSpaceOnUse" color-interpolation-filters="sRGB">
<feFlood flood-opacity="0" result="BackgroundImageFix"/>
<feBlend mode="normal" in="SourceGraphic" in2="BackgroundImageFix" result="shape"/>
<feGaussianBlur stdDeviation="12.5" result="effect1_foregroundBlur"/>
</filter>
<filter id="filter1_f" x="-120.746" y="2.7664" width="1243.66" height="970.23" filterUnits="userSpaceOnUse" color-interpolation-filters="sRGB">
<feFlood flood-opacity="0" result="BackgroundImageFix"/>
<feBlend mode="normal" in="SourceGraphic" in2="BackgroundImageFix" result="shape"/>
<feGaussianBlur stdDeviation="37.5" result="effect1_foregroundBlur"/>
</filter>
<filter id="filter2_f" x="-54.0493" y="69.4636" width="1110.26" height="836.835" filterUnits="userSpaceOnUse" color-interpolation-filters="sRGB">
<feFlood flood-opacity="0" result="BackgroundImageFix"/>
<feBlend mode="normal" in="SourceGraphic" in2="BackgroundImageFix" result="shape"/>
<feGaussianBlur stdDeviation="4.1514" result="effect1_foregroundBlur"/>
</filter>
<filter id="filter3_f" x="-39.9334" y="-34.8041" width="1118.13" height="940.841" filterUnits="userSpaceOnUse" color-interpolation-filters="sRGB">
<feFlood flood-opacity="0" result="BackgroundImageFix"/>
<feBlend mode="normal" in="SourceGraphic" in2="BackgroundImageFix" result="shape"/>
<feGaussianBlur stdDeviation="12.5" result="effect1_foregroundBlur"/>
</filter>
<filter id="filter4_f" x="761.777" y="745.854" width="252.238" height="140.072" filterUnits="userSpaceOnUse" color-interpolation-filters="sRGB">
<feFlood flood-opacity="0" result="BackgroundImageFix"/>
<feBlend mode="normal" in="SourceGraphic" in2="BackgroundImageFix" result="shape"/>
<feGaussianBlur stdDeviation="2.47437" result="effect1_foregroundBlur"/>
</filter>
<filter id="filter5_f" x="616.208" y="515.867" width="26.1841" height="239.292" filterUnits="userSpaceOnUse" color-interpolation-filters="sRGB">
<feFlood flood-opacity="0" result="BackgroundImageFix"/>
<feBlend mode="normal" in="SourceGraphic" in2="BackgroundImageFix" result="shape"/>
<feGaussianBlur stdDeviation="0.577318" result="effect1_foregroundBlur"/>
</filter>
<filter id="filter6_f" x="631.086" y="49.4308" width="76.5253" height="353.467" filterUnits="userSpaceOnUse" color-interpolation-filters="sRGB">
<feFlood flood-opacity="0" result="BackgroundImageFix"/>
<feBlend mode="normal" in="SourceGraphic" in2="BackgroundImageFix" result="shape"/>
<feGaussianBlur stdDeviation="1.74936" result="effect1_foregroundBlur"/>
</filter>
<filter id="filter7_f" x="506.793" y="42.9229" width="50.711" height="309.851" filterUnits="userSpaceOnUse" color-interpolation-filters="sRGB">
<feFlood flood-opacity="0" result="BackgroundImageFix"/>
<feBlend mode="normal" in="SourceGraphic" in2="BackgroundImageFix" result="shape"/>
<feGaussianBlur stdDeviation="1.25672" result="effect1_foregroundBlur"/>
</filter>
<filter id="filter8_f" x="405.233" y="133.56" width="73.7996" height="274.675" filterUnits="userSpaceOnUse" color-interpolation-filters="sRGB">
<feFlood flood-opacity="0" result="BackgroundImageFix"/>
<feBlend mode="normal" in="SourceGraphic" in2="BackgroundImageFix" result="shape"/>
<feGaussianBlur stdDeviation="2.18324" result="effect1_foregroundBlur"/>
</filter>
<filter id="filter9_f" x="275.976" y="76.5617" width="149.085" height="313.953" filterUnits="userSpaceOnUse" color-interpolation-filters="sRGB">
<feFlood flood-opacity="0" result="BackgroundImageFix"/>
<feBlend mode="normal" in="SourceGraphic" in2="BackgroundImageFix" result="shape"/>
<feGaussianBlur stdDeviation="2.39729" result="effect1_foregroundBlur"/>
</filter>
<filter id="filter10_f" x="518.228" y="356.728" width="21.678" height="248" filterUnits="userSpaceOnUse" color-interpolation-filters="sRGB">
<feFlood flood-opacity="0" result="BackgroundImageFix"/>
<feBlend mode="normal" in="SourceGraphic" in2="BackgroundImageFix" result="shape"/>
<feGaussianBlur stdDeviation="1.15283" result="effect1_foregroundBlur"/>
</filter>
<filter id="filter11_f" x="509.272" y="828.716" width="60.5552" height="40.2202" filterUnits="userSpaceOnUse" color-interpolation-filters="sRGB">
<feFlood flood-opacity="0" result="BackgroundImageFix"/>
<feBlend mode="normal" in="SourceGraphic" in2="BackgroundImageFix" result="shape"/>
<feGaussianBlur stdDeviation="0.430972" result="effect1_foregroundBlur"/>
</filter>
<filter id="filter12_f" x="407.06" y="791.341" width="63.595" height="82.6269" filterUnits="userSpaceOnUse" color-interpolation-filters="sRGB">
<feFlood flood-opacity="0" result="BackgroundImageFix"/>
<feBlend mode="normal" in="SourceGraphic" in2="BackgroundImageFix" result="shape"/>
<feGaussianBlur stdDeviation="0.625246" result="effect1_foregroundBlur"/>
</filter>
<filter id="filter13_f" x="380.127" y="692.678" width="95.7178" height="113.004" filterUnits="userSpaceOnUse" color-interpolation-filters="sRGB">
<feFlood flood-opacity="0" result="BackgroundImageFix"/>
<feBlend mode="normal" in="SourceGraphic" in2="BackgroundImageFix" result="shape"/>
<feGaussianBlur stdDeviation="0.892513" result="effect1_foregroundBlur"/>
</filter>
<filter id="filter14_f" x="275.808" y="693.776" width="102.229" height="178.085" filterUnits="userSpaceOnUse" color-interpolation-filters="sRGB">
<feFlood flood-opacity="0" result="BackgroundImageFix"/>
<feBlend mode="normal" in="SourceGraphic" in2="BackgroundImageFix" result="shape"/>
<feGaussianBlur stdDeviation="1.19535" result="effect1_foregroundBlur"/>
</filter>
<filter id="filter15_f" x="332.671" y="763.116" width="51.8516" height="84.792" filterUnits="userSpaceOnUse" color-interpolation-filters="sRGB">
<feFlood flood-opacity="0" result="BackgroundImageFix"/>
<feBlend mode="normal" in="SourceGraphic" in2="BackgroundImageFix" result="shape"/>
<feGaussianBlur stdDeviation="0.861659" result="effect1_foregroundBlur"/>
</filter>
<filter id="filter16_f" x="3.89789" y="361.645" width="156.333" height="167.347" filterUnits="userSpaceOnUse" color-interpolation-filters="sRGB">
<feFlood flood-opacity="0" result="BackgroundImageFix"/>
<feBlend mode="normal" in="SourceGraphic" in2="BackgroundImageFix" result="shape"/>
<feGaussianBlur stdDeviation="1.71547" result="effect1_foregroundBlur"/>
</filter>
<filter id="filter17_f" x="-21.3233" y="96.1749" width="78.6215" height="453.823" filterUnits="userSpaceOnUse" color-interpolation-filters="sRGB">
<feFlood flood-opacity="0" result="BackgroundImageFix"/>
<feBlend mode="normal" in="SourceGraphic" in2="BackgroundImageFix" result="shape"/>
<feGaussianBlur stdDeviation="3.2505" result="effect1_foregroundBlur"/>
</filter>
<filter id="filter18_f" x="-17.9052" y="508.713" width="90.2103" height="375.296" filterUnits="userSpaceOnUse" color-interpolation-filters="sRGB">
<feFlood flood-opacity="0" result="BackgroundImageFix"/>
<feBlend mode="normal" in="SourceGraphic" in2="BackgroundImageFix" result="shape"/>
<feGaussianBlur stdDeviation="1.48592" result="effect1_foregroundBlur"/>
</filter>
<filter id="filter19_f" x="224.847" y="433.314" width="61.5349" height="151.18" filterUnits="userSpaceOnUse" color-interpolation-filters="sRGB">
<feFlood flood-opacity="0" result="BackgroundImageFix"/>
<feBlend mode="normal" in="SourceGraphic" in2="BackgroundImageFix" result="shape"/>
<feGaussianBlur stdDeviation="0.643228" result="effect1_foregroundBlur"/>
</filter>
<filter id="filter20_f" x="-39.0754" y="-59.8041" width="251.967" height="398.058" filterUnits="userSpaceOnUse" color-interpolation-filters="sRGB">
<feFlood flood-opacity="0" result="BackgroundImageFix"/>
<feBlend mode="normal" in="SourceGraphic" in2="BackgroundImageFix" result="shape"/>
<feGaussianBlur stdDeviation="25" result="effect1_foregroundBlur"/>
</filter>
<filter id="filter21_f" x="410.204" y="49.0295" width="109.865" height="189.71" filterUnits="userSpaceOnUse" color-interpolation-filters="sRGB">
<feFlood flood-opacity="0" result="BackgroundImageFix"/>
<feBlend mode="normal" in="SourceGraphic" in2="BackgroundImageFix" result="shape"/>
<feGaussianBlur stdDeviation="3.04598" result="effect1_foregroundBlur"/>
</filter>
<filter id="filter22_f" x="309.653" y="18.5365" width="117.381" height="169.088" filterUnits="userSpaceOnUse" color-interpolation-filters="sRGB">
<feFlood flood-opacity="0" result="BackgroundImageFix"/>
<feBlend mode="normal" in="SourceGraphic" in2="BackgroundImageFix" result="shape"/>
<feGaussianBlur stdDeviation="2.91283" result="effect1_foregroundBlur"/>
</filter>
<filter id="filter23_f" x="215.844" y="37.392" width="125.478" height="184.685" filterUnits="userSpaceOnUse" color-interpolation-filters="sRGB">
<feFlood flood-opacity="0" result="BackgroundImageFix"/>
<feBlend mode="normal" in="SourceGraphic" in2="BackgroundImageFix" result="shape"/>
<feGaussianBlur stdDeviation="1.95589" result="effect1_foregroundBlur"/>
</filter>
<filter id="filter24_f" x="881.114" y="-30.2748" width="96.0311" height="129.432" filterUnits="userSpaceOnUse" color-interpolation-filters="sRGB">
<feFlood flood-opacity="0" result="BackgroundImageFix"/>
<feBlend mode="normal" in="SourceGraphic" in2="BackgroundImageFix" result="shape"/>
<feGaussianBlur stdDeviation="12.5" result="effect1_foregroundBlur"/>
</filter>
<filter id="filter25_f" x="773.256" y="-33.3113" width="90.0152" height="116.541" filterUnits="userSpaceOnUse" color-interpolation-filters="sRGB">
<feFlood flood-opacity="0" result="BackgroundImageFix"/>
<feBlend mode="normal" in="SourceGraphic" in2="BackgroundImageFix" result="shape"/>
<feGaussianBlur stdDeviation="12.5" result="effect1_foregroundBlur"/>
</filter>
<filter id="filter26_f" x="766.042" y="45.2042" width="36.2223" height="64.315" filterUnits="userSpaceOnUse" color-interpolation-filters="sRGB">
<feFlood flood-opacity="0" result="BackgroundImageFix"/>
<feBlend mode="normal" in="SourceGraphic" in2="BackgroundImageFix" result="shape"/>
<feGaussianBlur stdDeviation="1.02223" result="effect1_foregroundBlur"/>
</filter>
<filter id="filter27_f" x="585.092" y="182.041" width="98.2907" height="118.111" filterUnits="userSpaceOnUse" color-interpolation-filters="sRGB">
<feFlood flood-opacity="0" result="BackgroundImageFix"/>
<feBlend mode="normal" in="SourceGraphic" in2="BackgroundImageFix" result="shape"/>
<feGaussianBlur stdDeviation="1.36468" result="effect1_foregroundBlur"/>
</filter>
<filter id="filter28_f" x="582.685" y="65.3244" width="75.5635" height="312.514" filterUnits="userSpaceOnUse" color-interpolation-filters="sRGB">
<feFlood flood-opacity="0" result="BackgroundImageFix"/>
<feBlend mode="normal" in="SourceGraphic" in2="BackgroundImageFix" result="shape"/>
<feGaussianBlur stdDeviation="2.44682" result="effect1_foregroundBlur"/>
</filter>
<filter id="filter29_f" x="607.174" y="85.03" width="99.0505" height="396.02" filterUnits="userSpaceOnUse" color-interpolation-filters="sRGB">
<feFlood flood-opacity="0" result="BackgroundImageFix"/>
<feBlend mode="normal" in="SourceGraphic" in2="BackgroundImageFix" result="shape"/>
<feGaussianBlur stdDeviation="3.12142" result="effect1_foregroundBlur"/>
</filter>
<filter id="filter30_f" x="689.65" y="210.626" width="77.1481" height="341.166" filterUnits="userSpaceOnUse" color-interpolation-filters="sRGB">
<feFlood flood-opacity="0" result="BackgroundImageFix"/>
<feBlend mode="normal" in="SourceGraphic" in2="BackgroundImageFix" result="shape"/>
<feGaussianBlur stdDeviation="2.63744" result="effect1_foregroundBlur"/>
</filter>
<filter id="filter31_f" x="672.618" y="496.987" width="95.8526" height="117.896" filterUnits="userSpaceOnUse" color-interpolation-filters="sRGB">
<feFlood flood-opacity="0" result="BackgroundImageFix"/>
<feBlend mode="normal" in="SourceGraphic" in2="BackgroundImageFix" result="shape"/>
<feGaussianBlur stdDeviation="1.34794" result="effect1_foregroundBlur"/>
</filter>
<filter id="filter32_f" x="708.134" y="-8.42917" width="95.0186" height="233.467" filterUnits="userSpaceOnUse" color-interpolation-filters="sRGB">
<feFlood flood-opacity="0" result="BackgroundImageFix"/>
<feBlend mode="normal" in="SourceGraphic" in2="BackgroundImageFix" result="shape"/>
<feGaussianBlur stdDeviation="2.07125" result="effect1_foregroundBlur"/>
</filter>
<filter id="filter33_f" x="841.958" y="125.81" width="63.5658" height="308.398" filterUnits="userSpaceOnUse" color-interpolation-filters="sRGB">
<feFlood flood-opacity="0" result="BackgroundImageFix"/>
<feBlend mode="normal" in="SourceGraphic" in2="BackgroundImageFix" result="shape"/>
<feGaussianBlur stdDeviation="2.34518" result="effect1_foregroundBlur"/>
</filter>
<filter id="filter34_f" x="945.94" y="83.6563" width="111.171" height="199.636" filterUnits="userSpaceOnUse" color-interpolation-filters="sRGB">
<feFlood flood-opacity="0" result="BackgroundImageFix"/>
<feBlend mode="normal" in="SourceGraphic" in2="BackgroundImageFix" result="shape"/>
<feGaussianBlur stdDeviation="1.95988" result="effect1_foregroundBlur"/>
</filter>
<filter id="filter35_f" x="957.466" y="45.8389" width="45.9111" height="128.512" filterUnits="userSpaceOnUse" color-interpolation-filters="sRGB">
<feFlood flood-opacity="0" result="BackgroundImageFix"/>
<feBlend mode="normal" in="SourceGraphic" in2="BackgroundImageFix" result="shape"/>
<feGaussianBlur stdDeviation="1.09979" result="effect1_foregroundBlur"/>
</filter>
<filter id="filter36_f" x="990.785" y="243.55" width="55.1463" height="266.258" filterUnits="userSpaceOnUse" color-interpolation-filters="sRGB">
<feFlood flood-opacity="0" result="BackgroundImageFix"/>
<feBlend mode="normal" in="SourceGraphic" in2="BackgroundImageFix" result="shape"/>
<feGaussianBlur stdDeviation="2.02641" result="effect1_foregroundBlur"/>
</filter>
<filter id="filter37_f" x="560.696" y="107.556" width="106.294" height="429.871" filterUnits="userSpaceOnUse" color-interpolation-filters="sRGB">
<feFlood flood-opacity="0" result="BackgroundImageFix"/>
<feBlend mode="normal" in="SourceGraphic" in2="BackgroundImageFix" result="shape"/>
<feGaussianBlur stdDeviation="3.38052" result="effect1_foregroundBlur"/>
</filter>
<filter id="filter38_f" x="4.0154" y="25.9204" width="1015.59" height="862.644" filterUnits="userSpaceOnUse" color-interpolation-filters="sRGB">
<feFlood flood-opacity="0" result="BackgroundImageFix"/>
<feBlend mode="normal" in="SourceGraphic" in2="BackgroundImageFix" result="shape"/>
<feGaussianBlur stdDeviation="7.5" result="effect1_foregroundBlur"/>
</filter>
<filter id="filter39_f" x="127.547" y="559.338" width="126.91" height="315.726" filterUnits="userSpaceOnUse" color-interpolation-filters="sRGB">
<feFlood flood-opacity="0" result="BackgroundImageFix"/>
<feBlend mode="normal" in="SourceGraphic" in2="BackgroundImageFix" result="shape"/>
<feGaussianBlur stdDeviation="1.8925" result="effect1_foregroundBlur"/>
</filter>
<filter id="filter40_f" x="763.584" y="193.425" width="122.966" height="647.195" filterUnits="userSpaceOnUse" color-interpolation-filters="sRGB">
<feFlood flood-opacity="0" result="BackgroundImageFix"/>
<feBlend mode="normal" in="SourceGraphic" in2="BackgroundImageFix" result="shape"/>
<feGaussianBlur stdDeviation="1.67491" result="effect1_foregroundBlur"/>
</filter>
<filter id="filter41_f" x="697.141" y="534.072" width="40.285" height="334.185" filterUnits="userSpaceOnUse" color-interpolation-filters="sRGB">
<feFlood flood-opacity="0" result="BackgroundImageFix"/>
<feBlend mode="normal" in="SourceGraphic" in2="BackgroundImageFix" result="shape"/>
<feGaussianBlur stdDeviation="1.61629" result="effect1_foregroundBlur"/>
</filter>
<filter id="filter42_f" x="566.978" y="268.814" width="157.734" height="595.103" filterUnits="userSpaceOnUse" color-interpolation-filters="sRGB">
<feFlood flood-opacity="0" result="BackgroundImageFix"/>
<feBlend mode="normal" in="SourceGraphic" in2="BackgroundImageFix" result="shape"/>
<feGaussianBlur stdDeviation="0.563148" result="effect1_foregroundBlur"/>
</filter>
<filter id="filter43_f" x="542.361" y="146.867" width="85.4123" height="413.951" filterUnits="userSpaceOnUse" color-interpolation-filters="sRGB">
<feFlood flood-opacity="0" result="BackgroundImageFix"/>
<feBlend mode="normal" in="SourceGraphic" in2="BackgroundImageFix" result="shape"/>
<feGaussianBlur stdDeviation="1.88641" result="effect1_foregroundBlur"/>
</filter>
<filter id="filter44_f" x="413.968" y="82.6553" width="110.432" height="347.797" filterUnits="userSpaceOnUse" color-interpolation-filters="sRGB">
<feFlood flood-opacity="0" result="BackgroundImageFix"/>
<feBlend mode="normal" in="SourceGraphic" in2="BackgroundImageFix" result="shape"/>
<feGaussianBlur stdDeviation="1.01617" result="effect1_foregroundBlur"/>
</filter>
<filter id="filter45_f" x="464.278" y="260.359" width="114.581" height="470.968" filterUnits="userSpaceOnUse" color-interpolation-filters="sRGB">
<feFlood flood-opacity="0" result="BackgroundImageFix"/>
<feBlend mode="normal" in="SourceGraphic" in2="BackgroundImageFix" result="shape"/>
<feGaussianBlur stdDeviation="0.693217" result="effect1_foregroundBlur"/>
</filter>
<filter id="filter46_f" x="133.973" y="38.3605" width="313.386" height="660.56" filterUnits="userSpaceOnUse" color-interpolation-filters="sRGB">
<feFlood flood-opacity="0" result="BackgroundImageFix"/>
<feBlend mode="normal" in="SourceGraphic" in2="BackgroundImageFix" result="shape"/>
<feGaussianBlur stdDeviation="1.27992" result="effect1_foregroundBlur"/>
</filter>
<filter id="filter47_f" x="311.566" y="475.492" width="161.942" height="325.38" filterUnits="userSpaceOnUse" color-interpolation-filters="sRGB">
<feFlood flood-opacity="0" result="BackgroundImageFix"/>
<feBlend mode="normal" in="SourceGraphic" in2="BackgroundImageFix" result="shape"/>
<feGaussianBlur stdDeviation="2.08363" result="effect1_foregroundBlur"/>
</filter>
<filter id="filter48_f" x="15.2603" y="486.579" width="55.9319" height="383.268" filterUnits="userSpaceOnUse" color-interpolation-filters="sRGB">
<feFlood flood-opacity="0" result="BackgroundImageFix"/>
<feBlend mode="normal" in="SourceGraphic" in2="BackgroundImageFix" result="shape"/>
<feGaussianBlur stdDeviation="1.87757" result="effect1_foregroundBlur"/>
</filter>
<filter id="filter49_f" x="39.1269" y="402.461" width="62.6962" height="472.51" filterUnits="userSpaceOnUse" color-interpolation-filters="sRGB">
<feFlood flood-opacity="0" result="BackgroundImageFix"/>
<feBlend mode="normal" in="SourceGraphic" in2="BackgroundImageFix" result="shape"/>
<feGaussianBlur stdDeviation="0.703235" result="effect1_foregroundBlur"/>
</filter>
<filter id="filter50_f" x="116.6" y="544.246" width="43.931" height="323.443" filterUnits="userSpaceOnUse" color-interpolation-filters="sRGB">
<feFlood flood-opacity="0" result="BackgroundImageFix"/>
<feBlend mode="normal" in="SourceGraphic" in2="BackgroundImageFix" result="shape"/>
<feGaussianBlur stdDeviation="0.798922" result="effect1_foregroundBlur"/>
</filter>
<filter id="filter51_f" x="159.036" y="789.336" width="31.7943" height="80.9221" filterUnits="userSpaceOnUse" color-interpolation-filters="sRGB">
<feFlood flood-opacity="0" result="BackgroundImageFix"/>
<feBlend mode="normal" in="SourceGraphic" in2="BackgroundImageFix" result="shape"/>
<feGaussianBlur stdDeviation="0.48192" result="effect1_foregroundBlur"/>
</filter>
<filter id="filter52_f" x="189.047" y="750.155" width="26.4054" height="123.16" filterUnits="userSpaceOnUse" color-interpolation-filters="sRGB">
<feFlood flood-opacity="0" result="BackgroundImageFix"/>
<feBlend mode="normal" in="SourceGraphic" in2="BackgroundImageFix" result="shape"/>
<feGaussianBlur stdDeviation="0.942993" result="effect1_foregroundBlur"/>
</filter>
<filter id="filter53_f" x="36.7867" y="187.539" width="289.745" height="449.296" filterUnits="userSpaceOnUse" color-interpolation-filters="sRGB">
<feFlood flood-opacity="0" result="BackgroundImageFix"/>
<feBlend mode="normal" in="SourceGraphic" in2="BackgroundImageFix" result="shape"/>
<feGaussianBlur stdDeviation="0.971271" result="effect1_foregroundBlur"/>
</filter>
<filter id="filter54_f" x="641.28" y="92.7111" width="132.823" height="422.765" filterUnits="userSpaceOnUse" color-interpolation-filters="sRGB">
<feFlood flood-opacity="0" result="BackgroundImageFix"/>
<feBlend mode="normal" in="SourceGraphic" in2="BackgroundImageFix" result="shape"/>
<feGaussianBlur stdDeviation="12.5" result="effect1_foregroundBlur"/>
</filter>
<filter id="filter55_f" x="746.53" y="398.134" width="28.7813" height="185.331" filterUnits="userSpaceOnUse" color-interpolation-filters="sRGB">
<feFlood flood-opacity="0" result="BackgroundImageFix"/>
<feBlend mode="normal" in="SourceGraphic" in2="BackgroundImageFix" result="shape"/>
<feGaussianBlur stdDeviation="1.34991" result="effect1_foregroundBlur"/>
</filter>
<filter id="filter56_f" x="759.815" y="117.801" width="69.3401" height="287.533" filterUnits="userSpaceOnUse" color-interpolation-filters="sRGB">
<feFlood flood-opacity="0" result="BackgroundImageFix"/>
<feBlend mode="normal" in="SourceGraphic" in2="BackgroundImageFix" result="shape"/>
<feGaussianBlur stdDeviation="2.25008" result="effect1_foregroundBlur"/>
</filter>
<filter id="filter57_f" x="880.556" y="90.8352" width="84.9121" height="435.064" filterUnits="userSpaceOnUse" color-interpolation-filters="sRGB">
<feFlood flood-opacity="0" result="BackgroundImageFix"/>
<feBlend mode="normal" in="SourceGraphic" in2="BackgroundImageFix" result="shape"/>
<feGaussianBlur stdDeviation="3.27836" result="effect1_foregroundBlur"/>
</filter>
<filter id="filter58_f" x="922.337" y="152.885" width="65.7501" height="501.937" filterUnits="userSpaceOnUse" color-interpolation-filters="sRGB">
<feFlood flood-opacity="0" result="BackgroundImageFix"/>
<feBlend mode="normal" in="SourceGraphic" in2="BackgroundImageFix" result="shape"/>
<feGaussianBlur stdDeviation="3.57904" result="effect1_foregroundBlur"/>
</filter>
<filter id="filter59_f" x="887.543" y="97.6844" width="125.826" height="569.313" filterUnits="userSpaceOnUse" color-interpolation-filters="sRGB">
<feFlood flood-opacity="0" result="BackgroundImageFix"/>
<feBlend mode="normal" in="SourceGraphic" in2="BackgroundImageFix" result="shape"/>
<feGaussianBlur stdDeviation="4.38279" result="effect1_foregroundBlur"/>
</filter>
<filter id="filter60_f" x="209.825" y="192.224" width="230.99" height="688.026" filterUnits="userSpaceOnUse" color-interpolation-filters="sRGB">
<feFlood flood-opacity="0" result="BackgroundImageFix"/>
<feBlend mode="normal" in="SourceGraphic" in2="BackgroundImageFix" result="shape"/>
<feGaussianBlur stdDeviation="1.20767" result="effect1_foregroundBlur"/>
</filter>
<filter id="filter61_f" x="816.248" y="251.836" width="138.886" height="639.256" filterUnits="userSpaceOnUse" color-interpolation-filters="sRGB">
<feFlood flood-opacity="0" result="BackgroundImageFix"/>
<feBlend mode="normal" in="SourceGraphic" in2="BackgroundImageFix" result="shape"/>
<feGaussianBlur stdDeviation="12.5" result="effect1_foregroundBlur"/>
</filter>
<filter id="filter62_f" x="812" y="316.616" width="204.267" height="571.611" filterUnits="userSpaceOnUse" color-interpolation-filters="sRGB">
<feFlood flood-opacity="0" result="BackgroundImageFix"/>
<feBlend mode="normal" in="SourceGraphic" in2="BackgroundImageFix" result="shape"/>
<feGaussianBlur stdDeviation="10" result="effect1_foregroundBlur"/>
</filter>
<filter id="filter63_f" x="757.417" y="578.492" width="100.535" height="203.719" filterUnits="userSpaceOnUse" color-interpolation-filters="sRGB">
<feFlood flood-opacity="0" result="BackgroundImageFix"/>
<feBlend mode="normal" in="SourceGraphic" in2="BackgroundImageFix" result="shape"/>
<feGaussianBlur stdDeviation="12.5" result="effect1_foregroundBlur"/>
</filter>
<filter id="filter64_f" x="700.4" y="474.997" width="87.2828" height="405.365" filterUnits="userSpaceOnUse" color-interpolation-filters="sRGB">
<feFlood flood-opacity="0" result="BackgroundImageFix"/>
<feBlend mode="normal" in="SourceGraphic" in2="BackgroundImageFix" result="shape"/>
<feGaussianBlur stdDeviation="5" result="effect1_foregroundBlur"/>
</filter>
<filter id="filter65_f" x="598.169" y="277.59" width="243.291" height="590.691" filterUnits="userSpaceOnUse" color-interpolation-filters="sRGB">
<feFlood flood-opacity="0" result="BackgroundImageFix"/>
<feBlend mode="normal" in="SourceGraphic" in2="BackgroundImageFix" result="shape"/>
<feGaussianBlur stdDeviation="3.5" result="effect1_foregroundBlur"/>
</filter>
<filter id="filter66_f" x="427.811" y="225.395" width="153.612" height="405.754" filterUnits="userSpaceOnUse" color-interpolation-filters="sRGB">
<feFlood flood-opacity="0" result="BackgroundImageFix"/>
<feBlend mode="normal" in="SourceGraphic" in2="BackgroundImageFix" result="shape"/>
<feGaussianBlur stdDeviation="12.5" result="effect1_foregroundBlur"/>
</filter>
<filter id="filter67_f" x="402.015" y="424.035" width="279.704" height="445.375" filterUnits="userSpaceOnUse" color-interpolation-filters="sRGB">
<feFlood flood-opacity="0" result="BackgroundImageFix"/>
<feBlend mode="normal" in="SourceGraphic" in2="BackgroundImageFix" result="shape"/>
<feGaussianBlur stdDeviation="2.19273" result="effect1_foregroundBlur"/>
</filter>
<filter id="filter68_f" x="62.5332" y="46.9328" width="377.333" height="536.666" filterUnits="userSpaceOnUse" color-interpolation-filters="sRGB">
<feFlood flood-opacity="0" result="BackgroundImageFix"/>
<feBlend mode="normal" in="SourceGraphic" in2="BackgroundImageFix" result="shape"/>
<feGaussianBlur stdDeviation="5" result="effect1_foregroundBlur"/>
</filter>
<filter id="filter69_f" x="485.499" y="580.247" width="37.9928" height="274.928" filterUnits="userSpaceOnUse" color-interpolation-filters="sRGB">
<feFlood flood-opacity="0" result="BackgroundImageFix"/>
<feBlend mode="normal" in="SourceGraphic" in2="BackgroundImageFix" result="shape"/>
<feGaussianBlur stdDeviation="0.946118" result="effect1_foregroundBlur"/>
</filter>
<filter id="filter70_f" x="54.2052" y="691.838" width="135.737" height="171.315" filterUnits="userSpaceOnUse" color-interpolation-filters="sRGB">
<feFlood flood-opacity="0" result="BackgroundImageFix"/>
<feBlend mode="normal" in="SourceGraphic" in2="BackgroundImageFix" result="shape"/>
<feGaussianBlur stdDeviation="1.31296" result="effect1_foregroundBlur"/>
</filter>
<filter id="filter71_f" x="187.795" y="237.642" width="151.104" height="545.95" filterUnits="userSpaceOnUse" color-interpolation-filters="sRGB">
<feFlood flood-opacity="0" result="BackgroundImageFix"/>
<feBlend mode="normal" in="SourceGraphic" in2="BackgroundImageFix" result="shape"/>
<feGaussianBlur stdDeviation="0.915966" result="effect1_foregroundBlur"/>
</filter>
<filter id="filter72_f" x="33.7333" y="-22.8335" width="1008.8" height="910.668" filterUnits="userSpaceOnUse" color-interpolation-filters="sRGB">
<feFlood flood-opacity="0" result="BackgroundImageFix"/>
<feBlend mode="normal" in="SourceGraphic" in2="BackgroundImageFix" result="shape"/>
<feGaussianBlur stdDeviation="5" result="effect1_foregroundBlur"/>
</filter>
<filter id="filter73_f" x="250.991" y="198.168" width="217.019" height="471.179" filterUnits="userSpaceOnUse" color-interpolation-filters="sRGB">
<feFlood flood-opacity="0" result="BackgroundImageFix"/>
<feBlend mode="normal" in="SourceGraphic" in2="BackgroundImageFix" result="shape"/>
<feGaussianBlur stdDeviation="0.904399" result="effect1_foregroundBlur"/>
</filter>
<filter id="filter74_f" x="419.183" y="490.155" width="105.031" height="373.894" filterUnits="userSpaceOnUse" color-interpolation-filters="sRGB">
<feFlood flood-opacity="0" result="BackgroundImageFix"/>
<feBlend mode="normal" in="SourceGraphic" in2="BackgroundImageFix" result="shape"/>
<feGaussianBlur stdDeviation="0.629335" result="effect1_foregroundBlur"/>
</filter>
<filter id="filter75_f" x="52.2083" y="477.446" width="106.358" height="402.602" filterUnits="userSpaceOnUse" color-interpolation-filters="sRGB">
<feFlood flood-opacity="0" result="BackgroundImageFix"/>
<feBlend mode="normal" in="SourceGraphic" in2="BackgroundImageFix" result="shape"/>
<feGaussianBlur stdDeviation="1.1069" result="effect1_foregroundBlur"/>
</filter>
<filter id="filter76_f" x="66.8564" y="283.968" width="219.354" height="595.275" filterUnits="userSpaceOnUse" color-interpolation-filters="sRGB">
<feFlood flood-opacity="0" result="BackgroundImageFix"/>
<feBlend mode="normal" in="SourceGraphic" in2="BackgroundImageFix" result="shape"/>
<feGaussianBlur stdDeviation="1.77176" result="effect1_foregroundBlur"/>
</filter>
<filter id="filter77_f" x="41.1187" y="192.025" width="314.563" height="680.226" filterUnits="userSpaceOnUse" color-interpolation-filters="sRGB">
<feFlood flood-opacity="0" result="BackgroundImageFix"/>
<feBlend mode="normal" in="SourceGraphic" in2="BackgroundImageFix" result="shape"/>
<feGaussianBlur stdDeviation="1.30731" result="effect1_foregroundBlur"/>
</filter>
<filter id="filter78_f" x="890.647" y="313.271" width="151.887" height="254.315" filterUnits="userSpaceOnUse" color-interpolation-filters="sRGB">
<feFlood flood-opacity="0" result="BackgroundImageFix"/>
<feBlend mode="normal" in="SourceGraphic" in2="BackgroundImageFix" result="shape"/>
<feGaussianBlur stdDeviation="5" result="effect1_foregroundBlur"/>
</filter>
<filter id="filter79_f" x="388.09" y="-18.191" width="88.7319" height="207.746" filterUnits="userSpaceOnUse" color-interpolation-filters="sRGB">
<feFlood flood-opacity="0" result="BackgroundImageFix"/>
<feBlend mode="normal" in="SourceGraphic" in2="BackgroundImageFix" result="shape"/>
<feGaussianBlur stdDeviation="2.67877" result="effect1_foregroundBlur"/>
</filter>
<filter id="filter80_f" x="396.752" y="96.4542" width="44.3031" height="76.0608" filterUnits="userSpaceOnUse" color-interpolation-filters="sRGB">
<feFlood flood-opacity="0" result="BackgroundImageFix"/>
<feBlend mode="normal" in="SourceGraphic" in2="BackgroundImageFix" result="shape"/>
<feGaussianBlur stdDeviation="1.22383" result="effect1_foregroundBlur"/>
</filter>
<filter id="filter81_f" x="393.614" y="21.4051" width="53.1823" height="76.0504" filterUnits="userSpaceOnUse" color-interpolation-filters="sRGB">
<feFlood flood-opacity="0" result="BackgroundImageFix"/>
<feBlend mode="normal" in="SourceGraphic" in2="BackgroundImageFix" result="shape"/>
<feGaussianBlur stdDeviation="1.31405" result="effect1_foregroundBlur"/>
</filter>
<linearGradient id="paint0_linear" x1="518.4" y1="762.545" x2="514.127" y2="140.197" gradientUnits="userSpaceOnUse">
<stop stop-color="#23332B"/>
<stop offset="1" stop-color="#62B055"/>
</linearGradient>
<linearGradient id="paint1_linear" x1="877.867" y1="770.018" x2="888.549" y2="825.524" gradientUnits="userSpaceOnUse">
<stop stop-color="#468636"/>
<stop offset="1" stop-color="#2D4D2E"/>
</linearGradient>
<linearGradient id="paint2_linear" x1="635.733" y1="551.182" x2="633.597" y2="739.06" gradientUnits="userSpaceOnUse">
<stop stop-color="#8CB44C"/>
<stop offset="1" stop-color="#2F5233"/>
</linearGradient>
<linearGradient id="paint3_linear" x1="689.067" y1="108.173" x2="667.701" y2="316.33" gradientUnits="userSpaceOnUse">
<stop stop-color="#72B54E"/>
<stop offset="1" stop-color="#449D28"/>
</linearGradient>
<linearGradient id="paint4_linear" x1="529.067" y1="88.9576" x2="544.023" y2="241.607" gradientUnits="userSpaceOnUse">
<stop stop-color="#B5DDC5"/>
<stop offset="1" stop-color="#62B055"/>
</linearGradient>
<linearGradient id="paint5_linear" x1="460.8" y1="178.627" x2="425.548" y2="345.145" gradientUnits="userSpaceOnUse">
<stop stop-color="#B2E03D"/>
<stop offset="1" stop-color="#45A634"/>
</linearGradient>
<linearGradient id="paint6_linear" x1="297.6" y1="112.442" x2="393.706" y2="265.027" gradientUnits="userSpaceOnUse">
<stop stop-color="#83B793"/>
<stop offset="1" stop-color="#4EA737"/>
</linearGradient>
<linearGradient id="paint7_linear" x1="523.733" y1="395.328" x2="547.236" y2="563.987" gradientUnits="userSpaceOnUse">
<stop stop-color="#C0EBA9"/>
<stop offset="1" stop-color="#3B912A"/>
</linearGradient>
<linearGradient id="paint8_linear" x1="428.8" y1="826.595" x2="446.946" y2="843.661" gradientUnits="userSpaceOnUse">
<stop stop-color="#326516"/>
<stop offset="1" stop-color="#2F5022"/>
</linearGradient>
<linearGradient id="paint9_linear" x1="386.133" y1="710.238" x2="462.98" y2="772.095" gradientUnits="userSpaceOnUse">
<stop stop-color="#3F8D2F"/>
<stop offset="1" stop-color="#2B4133"/>
</linearGradient>
<linearGradient id="paint10_linear" x1="10.6665" y1="379.315" x2="92.8537" y2="449.707" gradientUnits="userSpaceOnUse">
<stop stop-color="#54A9A6"/>
<stop offset="1" stop-color="#50A46D"/>
</linearGradient>
<linearGradient id="paint11_linear" x1="35.2" y1="153.007" x2="15.9704" y2="445.498" gradientUnits="userSpaceOnUse">
<stop stop-color="#81BA33"/>
<stop offset="1" stop-color="#2A6625"/>
</linearGradient>
<linearGradient id="paint12_linear" x1="-1.06673" y1="590.679" x2="17.0945" y2="810.58" gradientUnits="userSpaceOnUse">
<stop stop-color="#3E9B28"/>
<stop offset="1" stop-color="#2B5129"/>
</linearGradient>
<linearGradient id="paint13_linear" x1="34.1333" y1="29.1779" x2="49.0896" y2="204.245" gradientUnits="userSpaceOnUse">
<stop stop-color="#336C39"/>
<stop offset="1" stop-color="#2B4832"/>
</linearGradient>
<linearGradient id="paint14_linear" x1="632.322" y1="97.3919" x2="626.278" y2="329.125" gradientUnits="userSpaceOnUse">
<stop stop-color="#6EAA84"/>
<stop offset="1" stop-color="#51A83E"/>
</linearGradient>
<linearGradient id="paint15_linear" x1="691.907" y1="105.695" x2="661.691" y2="357.803" gradientUnits="userSpaceOnUse">
<stop stop-color="#6EAD45"/>
<stop offset="1" stop-color="#348133"/>
</linearGradient>
<linearGradient id="paint16_linear" x1="757.527" y1="252.132" x2="719.758" y2="475.553" gradientUnits="userSpaceOnUse">
<stop stop-color="#4FA924"/>
<stop offset="1" stop-color="#204D31"/>
</linearGradient>
<linearGradient id="paint17_linear" x1="854.07" y1="166.082" x2="880.509" y2="349.5" gradientUnits="userSpaceOnUse">
<stop stop-color="#8CBB9E"/>
<stop offset="1" stop-color="#4EA232"/>
</linearGradient>
<linearGradient id="paint18_linear" x1="1022.27" y1="284.59" x2="1017.74" y2="439.33" gradientUnits="userSpaceOnUse">
<stop stop-color="#5BA033"/>
<stop offset="1" stop-color="#336041"/>
</linearGradient>
<linearGradient id="paint19_linear" x1="192" y1="539.439" x2="146.065" y2="784.95" gradientUnits="userSpaceOnUse">
<stop stop-color="#7DB494"/>
<stop offset="1" stop-color="#379338"/>
</linearGradient>
<linearGradient id="paint20_linear" x1="832" y1="400.665" x2="721.973" y2="841.5" gradientUnits="userSpaceOnUse">
<stop stop-color="#379422"/>
<stop offset="1" stop-color="#21322A"/>
</linearGradient>
<linearGradient id="paint21_linear" x1="711.467" y1="623.771" x2="723.218" y2="737.991" gradientUnits="userSpaceOnUse">
<stop stop-color="#388231"/>
<stop offset="1" stop-color="#264331"/>
</linearGradient>
<linearGradient id="paint22_linear" x1="611.2" y1="411.34" x2="687.038" y2="628.005" gradientUnits="userSpaceOnUse">
<stop stop-color="#98DA40"/>
<stop offset="1" stop-color="#22392B"/>
</linearGradient>
<linearGradient id="paint23_linear" x1="598.4" y1="199.977" x2="570.624" y2="432.685" gradientUnits="userSpaceOnUse">
<stop stop-color="#A8D8AD"/>
<stop offset="1" stop-color="#55AD28"/>
</linearGradient>
<linearGradient id="paint24_linear" x1="510.933" y1="125.252" x2="436.16" y2="387.825" gradientUnits="userSpaceOnUse">
<stop stop-color="#9BD446"/>
<stop offset="1" stop-color="#4DAC38"/>
</linearGradient>
<linearGradient id="paint25_linear" x1="570.667" y1="292.849" x2="471.325" y2="634.405" gradientUnits="userSpaceOnUse">
<stop stop-color="#A6E337"/>
<stop offset="1" stop-color="#32653B"/>
</linearGradient>
<linearGradient id="paint26_linear" x1="185.6" y1="106.037" x2="349.005" y2="445.401" gradientUnits="userSpaceOnUse">
<stop stop-color="#A5D63B"/>
<stop offset="1" stop-color="#3F9430"/>
</linearGradient>
<linearGradient id="paint27_linear" x1="361.6" y1="546.912" x2="423.547" y2="687.785" gradientUnits="userSpaceOnUse">
<stop stop-color="#E5F265"/>
<stop offset="1" stop-color="#3B723B"/>
</linearGradient>
<linearGradient id="paint28_linear" x1="33.0666" y1="534.102" x2="51.2279" y2="793.5" gradientUnits="userSpaceOnUse">
<stop stop-color="#3E893B"/>
<stop offset="1" stop-color="#295522"/>
</linearGradient>
<linearGradient id="paint29_linear" x1="80" y1="434.825" x2="61.8387" y2="727.316" gradientUnits="userSpaceOnUse">
<stop stop-color="#348026"/>
<stop offset="1" stop-color="#203524"/>
</linearGradient>
<linearGradient id="paint30_linear" x1="146.133" y1="597.084" x2="136.518" y2="819.122" gradientUnits="userSpaceOnUse">
<stop stop-color="#639B3D"/>
<stop offset="1" stop-color="#284B2A"/>
</linearGradient>
<linearGradient id="paint31_linear" x1="73.6" y1="233.069" x2="291.414" y2="520.062" gradientUnits="userSpaceOnUse">
<stop stop-color="#7BBF90"/>
<stop offset="1" stop-color="#69BA2C"/>
</linearGradient>
<linearGradient id="paint32_linear" x1="710.764" y1="150.23" x2="685.835" y2="456.689" gradientUnits="userSpaceOnUse">
<stop stop-color="#8AB98B"/>
<stop offset="1" stop-color="#346B32"/>
</linearGradient>
<linearGradient id="paint33_linear" x1="761.298" y1="449.898" x2="770.363" y2="544.251" gradientUnits="userSpaceOnUse">
<stop stop-color="#77B631"/>
<stop offset="1" stop-color="#2B4A32"/>
</linearGradient>
<linearGradient id="paint34_linear" x1="899.325" y1="165.327" x2="909.901" y2="300.44" gradientUnits="userSpaceOnUse">
<stop stop-color="#83AE97"/>
<stop offset="1" stop-color="#337432"/>
</linearGradient>
<linearGradient id="paint35_linear" x1="943.826" y1="187.217" x2="959.69" y2="498.206" gradientUnits="userSpaceOnUse">
<stop stop-color="#529C5D"/>
<stop offset="1" stop-color="#2A4731"/>
</linearGradient>
<linearGradient id="paint36_linear" x1="952.123" y1="152.495" x2="992.159" y2="523.11" gradientUnits="userSpaceOnUse">
<stop stop-color="#5A9D35"/>
<stop offset="1" stop-color="#263C30"/>
</linearGradient>
<linearGradient id="paint37_linear" x1="202.961" y1="451.557" x2="325.411" y2="710.885" gradientUnits="userSpaceOnUse">
<stop stop-color="#8ED322"/>
<stop offset="1" stop-color="#3B9425"/>
</linearGradient>
<linearGradient id="paint38_linear" x1="887.467" y1="413.475" x2="858.622" y2="773.217" gradientUnits="userSpaceOnUse">
<stop stop-color="#8EC4B7"/>
<stop offset="1" stop-color="#32692F"/>
</linearGradient>
<linearGradient id="paint39_linear" x1="893.867" y1="466.85" x2="970.782" y2="889.556" gradientUnits="userSpaceOnUse">
<stop stop-color="#7BAA43"/>
<stop offset="1" stop-color="#25402F"/>
</linearGradient>
<linearGradient id="paint40_linear" x1="811.733" y1="642.986" x2="792.505" y2="725.176" gradientUnits="userSpaceOnUse">
<stop stop-color="#3A6643"/>
<stop offset="1" stop-color="#22372F" stop-opacity="0"/>
</linearGradient>
<linearGradient id="paint41_linear" x1="770.133" y1="588.544" x2="746.631" y2="750.798" gradientUnits="userSpaceOnUse">
<stop stop-color="#56A046"/>
<stop offset="1" stop-color="#243E37"/>
</linearGradient>
<linearGradient id="paint42_linear" x1="757.333" y1="422.015" x2="665.473" y2="694.183" gradientUnits="userSpaceOnUse">
<stop stop-color="#97CD21"/>
<stop offset="1" stop-color="#24402A"/>
</linearGradient>
<linearGradient id="paint43_linear" x1="461.867" y1="323.806" x2="514.205" y2="474.297" gradientUnits="userSpaceOnUse">
<stop stop-color="#9DD5AB"/>
<stop offset="1" stop-color="#355F3B"/>
</linearGradient>
<linearGradient id="paint44_linear" x1="498.36" y1="532.659" x2="650.939" y2="818.649" gradientUnits="userSpaceOnUse">
<stop stop-color="#8FC9A0"/>
<stop offset="1" stop-color="#459827"/>
</linearGradient>
<linearGradient id="paint45_linear" x1="146.133" y1="126.32" x2="360.735" y2="393.031" gradientUnits="userSpaceOnUse">
<stop stop-color="#A5DB59"/>
<stop offset="1" stop-color="#71BF52"/>
</linearGradient>
<linearGradient id="paint46_linear" x1="497.067" y1="648.324" x2="503.476" y2="741.195" gradientUnits="userSpaceOnUse">
<stop stop-color="#56984F"/>
<stop offset="1" stop-color="#294633"/>
</linearGradient>
<linearGradient id="paint47_linear" x1="201.6" y1="301.389" x2="298.807" y2="661.096" gradientUnits="userSpaceOnUse">
<stop stop-color="#A6DE4B"/>
<stop offset="1" stop-color="#2C7620"/>
</linearGradient>
<linearGradient id="paint48_linear" x1="301.867" y1="241.609" x2="455.654" y2="538.275" gradientUnits="userSpaceOnUse">
<stop stop-color="#A1D7BA"/>
<stop offset="1" stop-color="#5CB133"/>
</linearGradient>
<linearGradient id="paint49_linear" x1="427.733" y1="578.937" x2="487.552" y2="788.141" gradientUnits="userSpaceOnUse">
<stop stop-color="#5EB525"/>
<stop offset="1" stop-color="#274D2A"/>
</linearGradient>
<linearGradient id="paint50_linear" x1="70.3999" y1="566.127" x2="106.718" y2="683.535" gradientUnits="userSpaceOnUse">
<stop stop-color="#2A7E17"/>
<stop offset="1" stop-color="#254B22"/>
</linearGradient>
<linearGradient id="paint51_linear" x1="101.333" y1="397.463" x2="233.774" y2="710.165" gradientUnits="userSpaceOnUse">
<stop stop-color="#57A95C"/>
<stop offset="1" stop-color="#45A039"/>
</linearGradient>
<linearGradient id="paint52_linear" x1="125.867" y1="395.328" x2="255.093" y2="653.581" gradientUnits="userSpaceOnUse">
<stop stop-color="#7DB494"/>
<stop offset="1" stop-color="#379338"/>
</linearGradient>
<linearGradient id="paint53_linear" x1="920.533" y1="352.628" x2="995.284" y2="473.203" gradientUnits="userSpaceOnUse">
<stop stop-color="#539A56"/>
<stop offset="1" stop-color="#36752F"/>
</linearGradient>
<clipPath id="clip0">
<rect width="1024" height="862" fill="white"/>
</clipPath>
</defs>
</svg>
