<svg height="33" viewBox="0 0 33 33" width="33" xmlns="http://www.w3.org/2000/svg"><g fill="none"><circle cx="16.28" cy="16.28" fill="#29abe0" r="16.28"/><path d="m22.257931 8.8h1.6076166c3.1007764 0 5.6144524 2.513676 5.6144524 5.6144524v.3300141c0 3.1007765-2.513676 5.6144524-5.6144524 5.6144524h-1.6076166v1.6897954c0 1.4311276-1.1601581 2.5912857-2.5912857 2.5912857h-12.23535959c-1.43112758 0-2.59128571-1.1601581-2.59128571-2.5912857v-11.9530714c0-.71556383.58007907-1.2956429 1.29564286-1.2956429zm0 2.9967568v5.5654054h1.4655732c1.5368443 0 2.7827027-1.2458585 2.7827027-2.7827027 0-1.5368443-1.2458584-2.7827027-2.7827027-2.7827027z" fill="#fff"/><path d="m5.36 2.27684576c.40029424-1.17123051 1.34894135-1.75684576 2.84594133-1.75684576 2.24549997 0 3.07796457 2.7936503 1.90093367 4.62-.78468728 1.21756646-2.36697894 2.75756646-4.746875 4.62-2.37989606-1.86243354-3.96218772-3.40243354-4.74687498-4.62-1.1770309-1.8263497-.34456631-4.62 1.90093365-4.62 1.49699998 0 2.44564709.58561525 2.84594133 1.75684576z" fill="#ff5e5b" transform="translate(7.84 11.8)"/></g></svg>